<svg width="61" height="60" viewBox="0 0 61 60" fill="none" xmlns="http://www.w3.org/2000/svg">
<path d="M24.5089 22.409C25.3998 23.2877 25.3998 24.7123 24.5089 25.591L22.3199 27.75H44.1875C45.4474 27.75 46.4687 28.7574 46.4687 30C46.4687 31.2426 45.4474 32.25 44.1875 32.25L22.3199 32.25L24.5089 34.409C25.3998 35.2877 25.3998 36.7123 24.5089 37.591C23.618 38.4697 22.1736 38.4697 21.2827 37.591L15.1994 31.591C14.9807 31.3753 14.8157 31.1266 14.7043 30.8613C14.5936 30.5979 14.5321 30.3094 14.5312 30.0067L14.5312 30L14.5312 29.9933C14.533 29.4197 14.7557 28.8466 15.1994 28.409L21.2827 22.409C22.1736 21.5303 23.618 21.5303 24.5089 22.409Z" fill="#015B97"/>
<path fill-rule="evenodd" clip-rule="evenodd" d="M60.9166 30C60.9166 46.5685 47.2986 60 30.5 60C13.7013 60 0.083313 46.5685 0.083313 30C0.083313 13.4315 13.7013 0 30.5 0C47.2986 0 60.9166 13.4315 60.9166 30ZM56.3541 30C56.3541 44.0833 44.7788 55.5 30.5 55.5C16.2211 55.5 4.64581 44.0833 4.64581 30C4.64581 15.9167 16.2211 4.5 30.5 4.5C44.7788 4.5 56.3541 15.9167 56.3541 30Z" fill="#015B97"/>
</svg>
