<svg width="35" height="36" viewBox="0 0 35 36" fill="none" xmlns="http://www.w3.org/2000/svg">
<path d="M8.75 12C6.5625 12 6.5625 15 8.75 15L11.6674 15C12.4728 15 13.125 15.6667 13.125 16.4952V30.75C13.125 33 16.0417 33 16.0417 30.75C16.0417 28.5 16.0417 24 17.5 24C18.9583 24 18.9583 28.5 18.9583 30.75C18.9583 33 21.875 33 21.875 30.75V16.5C21.875 15.6716 22.5279 15 23.3333 15H26.25C28.4375 15 28.4375 12 26.25 12H8.75Z" stroke="#22202A" stroke-linecap="round"/>
<path d="M20.4166 6.75C20.4166 8.40685 19.1108 9.75 17.5 9.75C15.8891 9.75 14.5833 8.40685 14.5833 6.75C14.5833 5.09315 15.8891 3.75 17.5 3.75C19.1108 3.75 20.4166 5.09315 20.4166 6.75Z" stroke="#22202A"/>
</svg>
