<svg width="46" height="44" viewBox="0 0 46 44" fill="none" xmlns="http://www.w3.org/2000/svg">
<path d="M41.2665 4.52773C41.8278 5.0647 41.8278 5.9353 41.2665 6.47227L6.76647 39.4723C6.20509 40.0092 5.29491 40.0092 4.73353 39.4723C4.17216 38.9353 4.17216 38.0647 4.73353 37.5277L39.2335 4.52773C39.7949 3.99076 40.7051 3.99076 41.2665 4.52773Z" fill="#CDF0FE"/>
<path d="M32.0165 9.48651C29.3281 8.11238 26.2572 7.33333 22.9961 7.33333C14.2654 7.33333 6.89822 12.9169 4.58444 20.5545C4.29859 21.4981 4.29859 22.5019 4.58444 23.4455C5.48014 26.4021 7.13315 29.0509 9.3294 31.1872L11.3621 29.2429C9.50392 27.4305 8.10488 25.1856 7.34584 22.6801C7.21146 22.2365 7.21146 21.7635 7.34584 21.3199C9.31306 14.8263 15.5792 10.0833 22.9961 10.0833C25.4531 10.0833 27.7838 10.6038 29.8738 11.5361L32.0165 9.48651Z" fill="#CDF0FE"/>
<path d="M16.1238 32.4664C18.2124 33.3971 20.5412 33.9167 22.9961 33.9167C30.4129 33.9167 36.6791 29.1737 38.6463 22.6801C38.7807 22.2365 38.7807 21.7635 38.6463 21.3199C37.8878 18.8162 36.4902 16.5727 34.634 14.761L36.6667 12.8167C38.861 14.9522 40.5125 17.5997 41.4077 20.5545C41.6935 21.4981 41.6935 22.5019 41.4077 23.4455C39.0939 31.0831 31.7267 36.6667 22.9961 36.6667C19.737 36.6667 16.668 35.8886 13.9809 34.5161L16.1238 32.4664Z" fill="#CDF0FE"/>
<path d="M23 14.6667C24.0624 14.6667 25.0743 14.8734 25.9941 15.247L23.6782 17.4622C23.4566 17.4322 23.2302 17.4167 23 17.4167C20.3536 17.4167 18.2083 19.4687 18.2083 22C18.2083 22.2202 18.2246 22.4368 18.256 22.6487L15.94 24.8639C15.5494 23.9841 15.3333 23.0162 15.3333 22C15.3333 17.9499 18.7658 14.6667 23 14.6667Z" fill="#CDF0FE"/>
<path d="M23 26.5833C22.7698 26.5833 22.5434 26.5678 22.3218 26.5378L20.0059 28.753C20.9258 29.1266 21.9376 29.3333 23 29.3333C27.2342 29.3333 30.6667 26.0501 30.6667 22C30.6667 20.9838 30.4506 20.0159 30.06 19.1361L27.744 21.3513C27.7754 21.5632 27.7917 21.7798 27.7917 22C27.7917 24.5313 25.6464 26.5833 23 26.5833Z" fill="#CDF0FE"/>
</svg>
