<svg width="45" height="45" viewBox="0 0 45 45" fill="none" xmlns="http://www.w3.org/2000/svg">
<path d="M7.30238 22.5C7.30238 20.9467 8.56157 19.6875 10.1149 19.6875H10.1351C11.6884 19.6875 12.9476 20.9467 12.9476 22.5C12.9476 24.0533 11.6884 25.3125 10.1351 25.3125H10.1149C8.56157 25.3125 7.30238 24.0533 7.30238 22.5Z" fill="#CCE8F1"/>
<path d="M22.4899 19.6875C20.9366 19.6875 19.6774 20.9467 19.6774 22.5C19.6774 24.0533 20.9366 25.3125 22.4899 25.3125H22.5101C24.0634 25.3125 25.3226 24.0533 25.3226 22.5C25.3226 20.9467 24.0634 19.6875 22.5101 19.6875H22.4899Z" fill="#CCE8F1"/>
<path d="M34.8649 19.6875C33.3116 19.6875 32.0524 20.9467 32.0524 22.5C32.0524 24.0533 33.3116 25.3125 34.8649 25.3125H34.8851C36.4384 25.3125 37.6976 24.0533 37.6976 22.5C37.6976 20.9467 36.4384 19.6875 34.8851 19.6875H34.8649Z" fill="#CCE8F1"/>
<path fill-rule="evenodd" clip-rule="evenodd" d="M45 22.5C45 34.9264 34.9264 45 22.5 45C10.0736 45 0 34.9264 0 22.5C0 10.0736 10.0736 0 22.5 0C34.9264 0 45 10.0736 45 22.5ZM41.625 22.5C41.625 33.0624 33.0624 41.625 22.5 41.625C11.9376 41.625 3.375 33.0624 3.375 22.5C3.375 11.9376 11.9376 3.375 22.5 3.375C33.0624 3.375 41.625 11.9376 41.625 22.5Z" fill="#CCE8F1"/>
<path d="M22.5 0.25C34.7883 0.25 44.75 10.2117 44.75 22.5C44.75 34.7883 34.7883 44.75 22.5 44.75C10.2117 44.75 0.25 34.7883 0.25 22.5C0.25 10.2117 10.2117 0.25 22.5 0.25ZM22.5 3.125C11.7995 3.125 3.125 11.7995 3.125 22.5C3.125 33.2005 11.7995 41.875 22.5 41.875C33.2005 41.875 41.875 33.2005 41.875 22.5C41.875 11.7995 33.2005 3.125 22.5 3.125ZM10.1152 19.9375H10.1348C11.55 19.9375 12.6973 21.0848 12.6973 22.5C12.6973 23.9152 11.55 25.0625 10.1348 25.0625H10.1152C8.7 25.0625 7.55273 23.9152 7.55273 22.5C7.55273 21.0848 8.7 19.9375 10.1152 19.9375ZM22.4902 19.9375H22.5098C23.925 19.9375 25.0723 21.0848 25.0723 22.5C25.0723 23.9152 23.925 25.0625 22.5098 25.0625H22.4902C21.075 25.0625 19.9277 23.9152 19.9277 22.5C19.9277 21.0848 21.075 19.9375 22.4902 19.9375ZM34.8652 19.9375H34.8848C36.3 19.9375 37.4473 21.0848 37.4473 22.5C37.4473 23.9152 36.3 25.0625 34.8848 25.0625H34.8652C33.45 25.0625 32.3027 23.9152 32.3027 22.5C32.3027 21.0848 33.45 19.9375 34.8652 19.9375Z" stroke="#80ADCB" stroke-opacity="0.54" stroke-width="0.5"/>
</svg>
