<svg width="41" height="42" viewBox="0 0 41 42" fill="none" xmlns="http://www.w3.org/2000/svg">
<path d="M39.1042 20.9642C39.1042 32.5705 31.1281 40.9285 20.0521 40.9285C8.97611 40.9285 1 32.5705 1 20.9642C1 9.35798 8.97611 1 20.0521 1C31.1281 1 39.1042 9.35798 39.1042 20.9642Z" stroke="#015B97" stroke-width="2"/>
<path opacity="0.5" d="M16.458 12.9665C16.2671 13.4492 16.2671 14.0612 16.2671 15.2852V17.852C16.2671 17.8803 16.2671 17.8945 16.2583 17.9032C16.2496 17.912 16.2354 17.912 16.2071 17.912H13.7603C12.5922 17.912 12.0082 17.912 11.5475 18.112C10.9333 18.3786 10.4453 18.89 10.1908 19.5336C10 20.0164 10 20.6284 10 21.8523C10 23.0763 10 23.6883 10.1908 24.171C10.4453 24.8147 10.9333 25.3261 11.5475 25.5927C12.0082 25.7927 12.5922 25.7927 13.7603 25.7927H16.2071C16.2354 25.7927 16.2496 25.7927 16.2583 25.8014C16.2671 25.8102 16.2671 25.8244 16.2671 25.8527V28.4195C16.2671 29.6435 16.2671 30.2555 16.458 30.7382C16.7124 31.3819 17.2004 31.8933 17.8147 32.1599C18.2753 32.3598 18.8594 32.3598 20.0274 32.3598C21.1955 32.3598 21.7795 32.3598 22.2402 32.1599C22.8544 31.8933 23.3424 31.3819 23.5969 30.7382C23.7877 30.2555 23.7877 29.6435 23.7877 28.4195V25.8527C23.7877 25.8244 23.7877 25.8102 23.7965 25.8014C23.8053 25.7927 23.8194 25.7927 23.8477 25.7927H26.2946C27.4626 25.7927 28.0466 25.7927 28.5073 25.5927C29.1216 25.3261 29.6096 24.8147 29.864 24.171C30.0548 23.6883 30.0548 23.0763 30.0548 21.8523C30.0548 20.6284 30.0548 20.0164 29.864 19.5336C29.6096 18.89 29.1216 18.3786 28.5073 18.112C28.0466 17.912 27.4626 17.912 26.2946 17.912H23.8477C23.8194 17.912 23.8053 17.912 23.7965 17.9032C23.7877 17.8945 23.7877 17.8803 23.7877 17.852V15.2852C23.7877 14.0612 23.7877 13.4492 23.5969 12.9665C23.3424 12.3228 22.8544 11.8114 22.2402 11.5448C21.7795 11.3448 21.1955 11.3448 20.0274 11.3448C18.8594 11.3448 18.2753 11.3448 17.8147 11.5448C17.2004 11.8114 16.7124 12.3228 16.458 12.9665Z" stroke="#015B97" stroke-width="2"/>
</svg>
