<svg width="38" height="38" viewBox="0 0 38 38" fill="none" xmlns="http://www.w3.org/2000/svg">
<path fill-rule="evenodd" clip-rule="evenodd" d="M25.0884 27.4966C22.9592 29.1196 20.3005 30.0833 17.4167 30.0833C10.4211 30.0833 4.75 24.4123 4.75 17.4167C4.75 10.4211 10.4211 4.75 17.4167 4.75C24.4123 4.75 30.0833 10.4211 30.0833 17.4167C30.0833 20.6962 28.837 23.6846 26.7921 25.9341C26.8342 25.9628 26.8749 25.9944 26.9139 26.0291L34.0389 32.3625C34.5291 32.7982 34.5733 33.5488 34.1375 34.0389C33.7018 34.5291 32.9512 34.5733 32.4611 34.1375L25.3361 27.8042C25.2341 27.7136 25.1515 27.6093 25.0884 27.4966ZM27.7083 17.4167C27.7083 23.1006 23.1006 27.7083 17.4167 27.7083C11.7327 27.7083 7.125 23.1006 7.125 17.4167C7.125 11.7327 11.7327 7.125 17.4167 7.125C23.1006 7.125 27.7083 11.7327 27.7083 17.4167Z" fill="#85B5D0"/>
</svg>
